<svg width="1080" height="1080" viewBox="240 200 600 600" fill="none" xmlns="http://www.w3.org/2000/svg">
<g clip-path="url(#clip0_171_577)">
<path d="M1080 0H0V1080H1080V0Z" fill="white"/>
<path fill-rule="evenodd" clip-rule="evenodd" d="M499.615 281C492.988 281 487.615 286.373 487.615 293V419.112L353.781 335.451C348.161 331.938 340.758 333.646 337.245 339.265L286.857 419.872C283.344 425.492 285.051 432.895 290.671 436.408L455.31 539.326L290.641 642.263C285.021 645.776 283.313 653.18 286.826 658.799L337.214 739.406C340.727 745.026 348.131 746.734 353.751 743.221L487.615 659.54V785.74C487.615 792.367 492.988 797.74 499.615 797.74H594.675C601.303 797.74 606.675 792.367 606.675 785.74V598.15H782.315C788.943 598.15 794.315 592.777 794.315 586.15V491.09C794.315 484.462 788.943 479.09 782.315 479.09H606.675V400.06H698.596C705.223 400.06 710.596 394.687 710.596 388.06V293C710.596 286.373 705.223 281 698.596 281H594.675H499.616H499.615Z" fill="black"/>
</g>
<defs>
<clipPath id="clip0_171_577">
<rect width="1080" height="1080" fill="white"/>
</clipPath>
</defs>
</svg>
